<?xml version="1.0" standalone="no"?><svg xmlns="http://www.w3.org/2000/svg" viewBox="0 0 1440 320">
    <path fill="#111" fill-opacity="1"
        d="M0,0L40,42.7C80,85,160,171,240,202.7C320,235,400,213,480,181.3C560,149,640,107,720,74.7C800,43,880,21,960,53.3C1040,85,1120,171,1200,208C1280,245,1360,235,1400,229.3L1440,224L1440,320L1400,320C1360,320,1280,320,1200,320C1120,320,1040,320,960,320C880,320,800,320,720,320C640,320,560,320,480,320C400,320,320,320,240,320C160,320,80,320,40,320L0,320Z">
    </path>
</svg>